<?xml version="1.0" encoding="utf-8"?>
<!-- Generator: Adobe Illustrator 21.0.0, SVG Export Plug-In . SVG Version: 6.00 Build 0)  -->
<svg version="1.1" id="Layer_1" xmlns="http://www.w3.org/2000/svg" xmlns:xlink="http://www.w3.org/1999/xlink" x="0px" y="0px"
	 viewBox="0 0 64 64" style="enable-background:new 0 0 64 64;" xml:space="preserve">
<style type="text/css">
	.st0{fill:#039BE5;stroke:#0277BD;stroke-linecap:round;stroke-linejoin:round;stroke-miterlimit:10;}
	.st1{fill:#81D4FA;stroke:#0277BD;stroke-linecap:round;stroke-linejoin:round;stroke-miterlimit:10;}
	.st2{fill:#EC407A;stroke:#0277BD;stroke-linecap:round;stroke-linejoin:round;stroke-miterlimit:10;}
	.st3{fill:#FFA726;stroke:#0277BD;stroke-linecap:round;stroke-linejoin:round;stroke-miterlimit:10;}
	.st4{fill:#80CBC4;stroke:#0277BD;stroke-linecap:round;stroke-linejoin:round;stroke-miterlimit:10;}
	.st5{fill:none;stroke:#F48FB1;stroke-linecap:round;stroke-linejoin:round;stroke-miterlimit:10;}
	.st6{fill:none;stroke:#FFCC80;stroke-linecap:round;stroke-linejoin:round;stroke-miterlimit:10;}
	.st7{fill:none;stroke:#E0F2F1;stroke-linecap:round;stroke-linejoin:round;stroke-miterlimit:10;}
	.st8{fill:none;stroke:#26A69A;stroke-linecap:round;stroke-linejoin:round;stroke-miterlimit:10;}
	.st9{fill:none;stroke:#F57C00;stroke-linecap:round;stroke-linejoin:round;stroke-miterlimit:10;}
	.st10{fill:none;stroke:#D81B60;stroke-linecap:round;stroke-linejoin:round;stroke-miterlimit:10;}
	.st11{fill:#EEEEEE;stroke:#0277BD;stroke-linecap:round;stroke-linejoin:round;stroke-miterlimit:10;}
	.st12{fill:none;stroke:#BDBDBD;stroke-linecap:round;stroke-linejoin:round;stroke-miterlimit:10;}
	.st13{fill:none;stroke:#E1F5FE;stroke-linecap:round;stroke-linejoin:round;stroke-miterlimit:10;}
	.st14{fill:none;stroke:#FFFFFF;stroke-linecap:round;stroke-linejoin:round;stroke-miterlimit:10;}
	.st15{fill:none;stroke:#29B6F6;stroke-linecap:round;stroke-linejoin:round;stroke-miterlimit:10;}
	.st16{fill:none;stroke:#4FC3F7;stroke-linecap:round;stroke-linejoin:round;stroke-miterlimit:10;}
	.st17{fill:none;stroke:#0277BD;stroke-linecap:round;stroke-linejoin:round;stroke-miterlimit:10;}
</style>
<g id="Destination">
	<g>
		<path class="st1" d="M57,24H7c-2.8,0-5,2.2-5,5v16h60V29C62,26.2,59.8,24,57,24z"/>
		<path class="st3" d="M57,61H7c-2.8,0-5-2.2-5-5V45h60v11C62,58.8,59.8,61,57,61z"/>
		<g>
			<path class="st2" d="M43,5.8L43,5.8c-3.3,3.2-4,8.3-1.7,12.3L50,32.7l8.6-14.6c2.3-4,1.7-9-1.7-12.3l0,0
				C53.1,2.1,46.9,2.1,43,5.8z"/>
			<circle class="st11" cx="50" cy="13" r="4"/>
		</g>
		<g>
			<path class="st11" d="M6.5,10c0-2.8,2.2-5,5-5c0.8,0,1.5,0.2,2.1,0.5C14.9,4,16.8,3,19,3c3.9,0,7,3.1,7,7H6.5z"/>
		</g>
		<path class="st11" d="M35,45H13c-0.6,0-1-0.4-1-1V29c0-0.6,0.4-1,1-1h22c0.6,0,1,0.4,1,1v15C36,44.6,35.6,45,35,45z"/>
		<path class="st0" d="M35.3,20H12.7c-0.4,0-0.8,0.3-0.9,0.7l-3.3,10C8.2,31.3,8.7,32,9.4,32h29.2c0.7,0,1.2-0.7,0.9-1.3l-3.3-10
			C36.1,20.3,35.7,20,35.3,20z"/>
		<path class="st17" d="M37.2,30H10.8 M34.6,22"/>
		<path class="st16" d="M13.9,22h20.6"/>
		<path class="st0" d="M27,45h-6v-7c0-1.7,1.3-3,3-3h0c1.7,0,3,1.3,3,3V45z"/>
		<path class="st0" d="M17.5,41h-2c-0.6,0-1-0.4-1-1v-4c0-0.6,0.4-1,1-1h2c0.6,0,1,0.4,1,1v4C18.5,40.6,18.1,41,17.5,41z"/>
		<path class="st0" d="M32.5,41h-2c-0.6,0-1-0.4-1-1v-4c0-0.6,0.4-1,1-1h2c0.6,0,1,0.4,1,1v4C33.5,40.6,33.1,41,32.5,41z"/>
		<path class="st0" d="M18,15h-3c-0.6,0-1,0.4-1,1v8c0,0.6,0.4,1,1,1h3c0.6,0,1-0.4,1-1v-8C19,15.4,18.6,15,18,15z"/>
		<path class="st9" d="M57,59H7"/>
		<path class="st6" d="M57,47H7"/>
		<polygon class="st11" points="39,61 29,61 19,45 29,45 		"/>
		<path class="st12" d="M37.7,59h-10"/>
		<path class="st14" d="M30.2,47h-10"/>
		<polygon class="st17" points="39,61 29,61 19,45 29,45 		"/>
	</g>
</g>
</svg>
